<svg id="Layer_1" data-name="Layer 1" xmlns="http://www.w3.org/2000/svg" width="197" height="197" viewBox="0 0 197 197"><title>bg-pattern</title><path d="M145.8,94.8l-4.2-12.3-.2-.4h0l-.3-.5H141l-.4-.3h-.1l-39-23.5a2.5,2.5,0,0,0-2.6,0L62.8,79.9h-.1l-.4.3h-.1l-.3.3h-.1L56.3,92.2a2.5,2.5,0,0,0,1,3.3l46.3,26a2.5,2.5,0,0,0,2.5,0l38.6-23.8A2.5,2.5,0,0,0,145.8,94.8ZM100.2,62.9l34.2,20.4-30.2,18.6L69,82Zm4.7,53.4-43-24.1,3.3-6.7L103,107a2.5,2.5,0,0,0,2.5,0l32.4-20,2.5,7.5Z" fill="#4286f4"/><path d="M95.9,76.6l5-3.2,5.3,3.6a2.5,2.5,0,0,0,2.8-4.2h0l-6.6-4.5a2.5,2.5,0,0,0-2.7,0l-6.4,4a2.5,2.5,0,1,0,2.6,4.3Z" fill="#4286f4"/><path d="M108.9,94.6a2.5,2.5,0,0,0,1.4-4.6l-6.6-4.4a2.5,2.5,0,0,0-2.7,0l-6.2,3.9a2.5,2.5,0,0,0,2.6,4.1l4.9-3,5.3,3.6A2.5,2.5,0,0,0,108.9,94.6Z" fill="#4286f4"/><path d="M106.9,84.6a2.5,2.5,0,0,0,3.5.6h0L115,82l5.2,3.6a2.5,2.5,0,0,0,2.8-4.2l-6.6-4.5a2.5,2.5,0,0,0-2.8,0l-6,4.2a2.5,2.5,0,0,0-.7,3.5Z" fill="#4286f4"/><path d="M96.7,84.9a2.5,2.5,0,0,0-.7-3.5h0l-6.6-4.5a2.5,2.5,0,0,0-2.7,0l-6.4,4a2.5,2.5,0,0,0,2.6,4.2l5-3.1,5.3,3.6a2.5,2.5,0,0,0,3.5-.7Z" fill="#4286f4"/></svg>