<svg id="Layer_1" data-name="Layer 1" xmlns="http://www.w3.org/2000/svg" width="68.6" height="48" viewBox="0 0 68.6 48"><title>choco</title><path d="M67.2,9.8c-1-1.9-4.6-7.3-10-9.1A9.8,9.8,0,0,0,51,.3,38.9,38.9,0,0,0,44.4,3L41.8,4.2a10.4,10.4,0,0,0-3,1.9h0l-.6.6A11.5,11.5,0,0,0,36,9.9l-2-.2h-.3a27,27,0,0,0-8.2,3.5l-1,.6a18,18,0,0,0-3.6,2.4,14.2,14.2,0,0,0-2.3,3.3,6.2,6.2,0,0,0-1.8-.2h-.5a27,27,0,0,0-8.2,3.5l-1,.6-.3.3-.5.2A10.2,10.2,0,0,0,.1,32.1c-.5,2.9.3,5.5,2.1,7s6.9,5.4,9.6,6.9a22.9,22.9,0,0,0,3.8,1.6A10.9,10.9,0,0,0,18,48a4.1,4.1,0,0,0,2.1-.5h.4l10.1-5.9.4-.2,1.5-.9.5-.3a1.2,1.2,0,0,0,.5-.5,1.4,1.4,0,0,0,.1-1.5.3.3,0,0,1-.1-.2l1.4-.8v.3a1.2,1.2,0,0,0,.9.8,1.7,1.7,0,0,0,1.2-.1l10.5-6.2h.1l.5-.3,1.4-.8a1.2,1.2,0,0,0,.5-.5,1.4,1.4,0,0,0,.2-1.6v-.3l1.4-.8v.3a1.2,1.2,0,0,0,.9.8,1.7,1.7,0,0,0,1.2-.1L65.9,21a1.5,1.5,0,0,0,.7-1.2v-.3l1.1-.8C69.9,17.6,67.4,10.2,67.2,9.8ZM40.1,8.6l.3-.3a7.5,7.5,0,0,1,4.4-.5c2.2.5,4.9,4.1,5.2,5.9a21.9,21.9,0,0,1,.4,3.7c0,.4-.1.9-.1,1.2a3.1,3.1,0,0,1-2-.9l-.9-1A19.4,19.4,0,0,0,39,10.6h-.2A5.4,5.4,0,0,1,40.1,8.6ZM22.8,18.1h0a7.3,7.3,0,0,1,4.6-.7c2.2.5,4.9,4.1,5.2,5.9A21.9,21.9,0,0,1,33,27c0,.4-.1.9-.1,1.2a3.1,3.1,0,0,1-2-.9l-.9-1a19.4,19.4,0,0,0-8.4-6.1h-.2A6.1,6.1,0,0,1,22.8,18.1ZM16.4,44.8a17.5,17.5,0,0,1-3.3-1.3c-2.4-1.4-8.5-6-9.2-6.5s-1.4-2.5-1.1-4.5a7.5,7.5,0,0,1,4.3-6,6.5,6.5,0,0,1,2.1-.4,9.3,9.3,0,0,1,4.5,1.3l2,1.5A24.9,24.9,0,0,1,18,31.1c2.5,3.3,1.9,8,1.1,12.6a3,3,0,0,1-.6,1.1h-.6A3.7,3.7,0,0,1,16.4,44.8Zm47.8-27a1.6,1.6,0,0,0-.5,1.1h0L53.3,25.1l-.3-.4c-1.2-1.1-3.4.1-5,1.3a2.7,2.7,0,0,0-.9,2.5l-.7.5-9.6,5.6-.3-.4c-1.2-1.2-3.4.1-5,1.3a2.5,2.5,0,0,0-.9,2.4l-8.3,4.9c.7-4.7,1-9.5-1.9-13.3a17.2,17.2,0,0,0-2.7-2.7,14.6,14.6,0,0,0-2.4-1.7,11.4,11.4,0,0,0-3-1.3,19.5,19.5,0,0,1,4.5-1.6,10.8,10.8,0,0,1,3.8.9c3.5,1.2,5.7,3.7,7.2,5.3l1.1,1.2.8.7-6,3a1.4,1.4,0,0,0-.6,1.9,1.4,1.4,0,0,0,1.3.8l.7-.2,9.2-4.9.3-.2c1.2-.9,1.3-3,1.3-3.7a27.3,27.3,0,0,0-.4-4.2c-.5-2.6-3.7-7.1-7.1-8.1a19.5,19.5,0,0,1,5.8-2.3,12.3,12.3,0,0,1,3.9.9c3.5,1.2,5.7,3.7,7.2,5.3l1.1,1.2.8.6-6.3,3.3a1.4,1.4,0,0,0-.6,1.9,1.4,1.4,0,0,0,1.3.8l.7-.2,9-4.8c1.8-.5,1.9-3.2,1.9-4a27.3,27.3,0,0,0-.4-4.2c-.5-2.5-3.4-6.8-6.7-8a26.9,26.9,0,0,1,5.8-2.3,6.6,6.6,0,0,1,4.4.4C60.8,4.8,64,9.5,64.7,11a.3.3,0,0,0,.1.2l-8.7,4.6a1.4,1.4,0,0,0-.6,1.9,1.4,1.4,0,0,0,1.3.8l.7-.2L65.6,14a14.8,14.8,0,0,1,.3,2.6Z" fill="#074399"/><path d="M15.6,30.6l-1.5-1.2a7.9,7.9,0,0,0-5.6-1.2,5.8,5.8,0,0,0-4.2,4.1A3.6,3.6,0,0,0,5.2,36c.5.4,4.7,3.7,6.5,4.8a11.2,11.2,0,0,0,2.5,1.1c.7.2,2,.5,2.6.1a2.3,2.3,0,0,0,.9-1.1c.8-2.9,1.6-6.1-.3-8.7A14.5,14.5,0,0,0,15.6,30.6Z" fill="#074399"/></svg>