<svg id="Layer_1" data-name="Layer 1" xmlns="http://www.w3.org/2000/svg" width="77" height="78.6" viewBox="0 0 77 78.6"><title>dark</title><path d="M69.8,50.6a24.3,24.3,0,0,0-5.5-9.5C61,37.4,58,31.8,56,25.6c-.4-1.3-.8-2.7-1.2-4l-.4-1.4-1.2.9c-5.5,4.1-7.5,12.4-4.9,20.2s9.2,13.3,16,13.3h0a12.3,12.3,0,0,0,3.9-.6l1.6-.7.7-.4-.2-.8Zm-2.3,1.6a10.3,10.3,0,0,1-3.2.5h0c-6,0-11.7-4.9-14.1-12s-.9-13.2,3-17l.8,2.6c1.2,3.8,4,10.9,8.7,16.1a22.3,22.3,0,0,1,5.1,8.8l.2.7Z" fill="#074399"/><path d="M75.9,32.2c-2.6-7.9-9.2-13.3-16-13.3a12.3,12.3,0,0,0-3.9.6l-1,.3v.8a22,22,0,0,0,.9,3.5c1.2,3.6,2.3,5.5,5.5,9s6.1,9,8.4,15.9l.6,1.9.5,1.5,1.2-1.1C76.7,47.2,78.3,39.5,75.9,32.2Zm-4,16.6v-.3c-2.4-7.2-5.3-12.8-8.8-16.6s-4-5-5.1-8.3a21.8,21.8,0,0,1-.6-2.4,10.3,10.3,0,0,1,2.6-.3c6,0,11.7,4.9,14.1,12S75,44.9,71.9,48.9Z" fill="#074399"/><path d="M26.4,7c.9-1.8,1.9-3.6,2.8-5.3L30,.4,28.6.2,25.9,0C17,0,8.1,6.1,3.4,15.7A29.3,29.3,0,0,0,.6,34.8C1.9,41,5.4,45.8,10.4,48.3l2.3.9.8.3.4-.7,1.2-2.2c3.1-6.2,3.6-9.9,4-15.2C19.5,24.4,22.2,15.4,26.4,7ZM13.3,45.7l-.7,1.4-1.2-.5C6.8,44.3,3.7,40,2.5,34.3A27.3,27.3,0,0,1,5.1,16.6C9.6,7.7,17.7,2,25.9,2h.9L24.6,6.1c-2.6,5.1-6.9,15.1-7.5,25.3C16.7,36.8,16.1,40,13.3,45.7Z" fill="#074399"/><path d="M17.5,49.8c8.9,0,17.7-6.1,22.5-15.7,6.4-12.8,3.3-27.5-7.1-32.7l-1-.5-.5.7A31.3,31.3,0,0,0,28.7,6c-2.4,4.9-3.2,7.9-3.6,14.6s-3,15.5-7.8,25L16,48.3l-.8,1.4h2.2Zm1.7-3.2c4.9-9.8,7.6-18.5,8-25.8s1.1-9.2,3.4-13.8a31,31,0,0,1,2-3.5c9,4.9,11.5,18.1,5.7,29.7-4.3,8.4-11.9,14-19.7,14.5Z" fill="#074399"/><path d="M50.4,53.7,50,53l-.8.3-1.6.7a24.3,24.3,0,0,0-8.7,6.6c-3.2,3.7-8.5,7.4-14.3,10.2l-3.8,1.7-1.4.6,1,1.1a15.8,15.8,0,0,0,11.5,4.5h0a21.7,21.7,0,0,0,9.2-2.1c9.1-4.3,13.7-13.9,10.2-21.3Zm-10.2,21a19.7,19.7,0,0,1-8.4,1.9h0A14.4,14.4,0,0,1,23,73.8l2.4-1.1C29,70.9,35.7,67.3,40.4,62a22.3,22.3,0,0,1,8.1-6.2l.7-.3.3.6C52.5,62.5,48.4,70.8,40.3,74.7Z" fill="#074399"/><path d="M23.2,70.9c3.4-1.6,5.1-3,8.3-6.5s8.1-7.1,14.8-10.3l1.8-.8,1.5-.7-1.2-1a16.2,16.2,0,0,0-10.4-3.5,21.7,21.7,0,0,0-9.2,2.1,20.6,20.6,0,0,0-9.8,9.4,13.5,13.5,0,0,0-.4,11.9h.1l.9-.4-.9.4.4.8.8-.2A21.8,21.8,0,0,0,23.2,70.9ZM20.7,60.5a18.6,18.6,0,0,1,8.8-8.4,19.7,19.7,0,0,1,8.4-1.9,14.9,14.9,0,0,1,7.8,2h-.3c-6.9,3.3-12.1,6.9-15.4,10.8s-4.4,4.5-7.6,6.1l-2.3.9A11.7,11.7,0,0,1,20.7,60.5Z" fill="#074399"/></svg>