<?xml version="1.0" encoding="utf-8"?>
<!-- Generator: Adobe Illustrator 20.1.0, SVG Export Plug-In . SVG Version: 6.00 Build 0)  -->
<svg version="1.1" id="Layer_1" xmlns="http://www.w3.org/2000/svg" xmlns:xlink="http://www.w3.org/1999/xlink" x="0px" y="0px"
	 viewBox="0 0 46.8 71.3" style="enable-background:new 0 0 46.8 71.3;" xml:space="preserve">
<style type="text/css">
	.st0{fill:#074399;}
</style>
<g>
	<path class="st0" d="M7.8,0C5.2,0,3,2.1,3,4.7v33.9c-1.7,0.2-3,1.6-3,3.3v0.6c0,1,0.6,1.9,1.3,2.5C0.6,45.7,0,46.5,0,47.6v0.6
		c0,1.7,1.3,3.2,3,3.3v15c0,2.6,2.1,4.8,4.8,4.8h31.4c2.6,0,4.8-2.1,4.8-4.8v-15c1.5-0.3,2.8-1.7,2.8-3.3v-0.6c0-1-0.6-1.9-1.3-2.5
		c0.8-0.6,1.3-1.5,1.3-2.5V42c0-1.6-1.2-3-2.8-3.3V4.7C44,2.1,41.9,0,39.2,0L7.8,0L7.8,0z M7.8,1.6h31.4c1.8,0,3.2,1.4,3.2,3.2v33.9
		H4.6V4.7C4.6,3,6,1.6,7.8,1.6L7.8,1.6z M11.3,5.5C9.4,5.5,7.9,7,7.9,8.9v7c0,1.9,1.5,3.4,3.4,3.4h7c1.9,0,3.4-1.5,3.4-3.4v-7
		c0-1.9-1.5-3.4-3.4-3.4L11.3,5.5L11.3,5.5z M28.8,5.5c-1.9,0-3.4,1.5-3.4,3.4v7c0,1.9,1.5,3.4,3.4,3.4h7c1.9,0,3.4-1.5,3.4-3.4v-7
		c0-1.9-1.5-3.4-3.4-3.4L28.8,5.5L28.8,5.5z M11.3,7h7c1,0,1.8,0.8,1.8,1.8v7c0,1-0.8,1.8-1.8,1.8h-7c-1,0-1.8-0.8-1.8-1.8v-7
		C9.5,7.8,10.3,7,11.3,7L11.3,7z M28.8,7h7c1,0,1.8,0.8,1.8,1.8v7c0,1-0.8,1.8-1.8,1.8h-7c-1,0-1.8-0.8-1.8-1.8v-7
		C27,7.8,27.8,7,28.8,7L28.8,7z M11.3,22.3c-1.9,0-3.4,1.5-3.4,3.4v7c0,1.9,1.5,3.4,3.4,3.4h7c1.9,0,3.4-1.5,3.4-3.4v-7
		c0-1.9-1.5-3.4-3.4-3.4H11.3L11.3,22.3z M28.8,22.3c-1.9,0-3.4,1.5-3.4,3.4v7c0,1.9,1.5,3.4,3.4,3.4h7c1.9,0,3.4-1.5,3.4-3.4v-7
		c0-1.9-1.5-3.4-3.4-3.4H28.8L28.8,22.3z M11.3,23.9h7c1,0,1.8,0.8,1.8,1.8v7c0,1-0.8,1.8-1.8,1.8h-7c-1,0-1.8-0.8-1.8-1.8v-7
		C9.5,24.7,10.3,23.9,11.3,23.9L11.3,23.9z M28.8,23.9h7c1,0,1.8,0.8,1.8,1.8v7c0,1-0.8,1.8-1.8,1.8h-7c-1,0-1.8-0.8-1.8-1.8v-7
		C27,24.7,27.8,23.9,28.8,23.9L28.8,23.9z M3.3,40.2h40.1c1,0,1.8,0.8,1.8,1.8v0.6c0,0.8-0.6,1.5-1.4,1.7c-0.4,0.1-0.6,0.4-0.6,0.8
		c0,0.4,0.3,0.7,0.6,0.8c0.8,0.2,1.4,0.9,1.4,1.7v0.6c0,1-0.8,1.8-1.8,1.8H3.3c-1,0-1.8-0.8-1.8-1.8v-0.6c0-0.8,0.6-1.5,1.3-1.7
		c0.4-0.1,0.6-0.4,0.6-0.8c0-0.4-0.3-0.7-0.6-0.8c-0.8-0.2-1.3-0.9-1.3-1.7V42C1.6,41,2.4,40.2,3.3,40.2L3.3,40.2z M4.6,51.6h37.8
		v15c0,1.8-1.4,3.2-3.2,3.2H7.8c-1.8,0-3.2-1.4-3.2-3.2L4.6,51.6L4.6,51.6z"/>
</g>
</svg>
